<svg xmlns="http://www.w3.org/2000/svg" width="20" height="px" viewBox="0 0 20 18">
  <g fill="#fe9c00">
    <path d="M20.055 10.547c-.196.52-.508.867-1.067.871-.05.43-.058.863-.152 1.277-.273 1.2-1.266 2.07-2.477 2.082-2.57.032-5.14.012-7.761.012.082-.078.136-.133.195-.18.785-.64 1.57-1.28 2.363-1.91a.757.757 0 0 1 .422-.148c1.473-.012 2.942-.008 4.414-.008.547 0 .73-.188.73-.746V6.539c0-.574-.175-.746-.753-.746h-2.926c.414-.758.52-1.496-.07-2.25h3c1.828 0 2.972 1.164 2.972 3.023v.329c.645.105.957.37 1.094.914.016.91.016 1.812.016 2.738ZM.055 5.934c.093-.286.168-.555.28-.801.466-1.004 1.286-1.551 2.349-1.57 2.543-.047 5.086-.016 7.632-.016.016 0 .028.012.075.035-.528.426-1.043.844-1.555 1.262-.332.27-.66.547-1 .8a.739.739 0 0 1-.399.145c-1.468.008-2.94.004-4.41.004-.574 0-.75.176-.75.75v5.258c0 .558.184.742.73.742h2.954c-.39.758-.55 1.5.074 2.25-.57 0-1.082.004-1.594 0-.648-.004-1.304.047-1.941-.027-1.309-.157-2.102-.954-2.426-2.325-.02-2.168-.02-4.324-.02-6.507Zm0 0"/>
    <path d="M8.527 6.555c.903-.735 1.793-1.457 2.684-2.172.113-.094.238-.184.375-.23.379-.13.758.242.656.636a1.872 1.872 0 0 1-.12.309c-.524 1.074-1.052 2.144-1.575 3.215-.04.082-.074.167-.129.28.105.005.184.012.262.012h2.054c.282 0 .508.102.61.391.101.29-.012.516-.23.691-1.802 1.461-3.598 2.918-5.4 4.372-.26.21-.558.21-.788.02-.211-.177-.246-.411-.09-.735.535-1.11 1.078-2.215 1.617-3.32.04-.083.074-.165.133-.294H6.324c-.375 0-.574-.113-.672-.378-.09-.262-.007-.465.301-.715.852-.692 1.707-1.38 2.574-2.082Zm0 0"/>
  </g>
</svg>