<svg xmlns="http://www.w3.org/2000/svg" width="20" height="px" viewBox="0 0 20 18">
  <g fill="#009c34">
    <path d="M.055 12.43c0-2.157 0-4.313.02-6.508.378-1.582 1.374-2.379 2.952-2.379h8.578c1.536 0 3.07-.008 4.606.004 1.289.012 2.34.855 2.629 2.117.094.406.098.828.144 1.25.563.035.907.363 1.07.906 0 .899 0 1.801-.015 2.739-.176.574-.543.84-1.094.875 0 .12-.004.222 0 .324.047 1.832-1.203 3.062-3.008 3.047-3.624-.035-7.25-.012-10.874-.012-.778 0-1.555.012-2.333-.004-1.187-.023-2.164-.777-2.527-1.922-.047-.144-.098-.289-.148-.437m4.527-6.637H3.027c-.574 0-.75.176-.75.75v5.227c0 .597.172.773.758.773h12.938c.566 0 .75-.18.75-.75v-5.2c0-.64-.157-.8-.785-.8H4.582Zm0 0"/>
    <path d="M5.332 6.918h10.262v4.484H3.406V6.918h1.926Zm0 0"/>
  </g>
</svg>