<svg xmlns="http://www.w3.org/2000/svg" width="20" height="px" viewBox="0 0 20 18">
  <g fill="#ff5a5a">
    <path d="M.055 12.43c0-2.157 0-4.313.02-6.508.378-1.582 1.374-2.379 2.952-2.379h8.578c1.536 0 3.07-.008 4.606.004 1.289.012 2.34.855 2.629 2.117.094.406.098.828.144 1.25.563.035.907.363 1.07.906 0 .899 0 1.801-.015 2.739-.176.574-.543.84-1.094.875 0 .12-.004.222 0 .324.047 1.832-1.203 3.062-3.008 3.047-3.624-.035-7.25-.012-10.874-.012-.778 0-1.555.012-2.333-.004-1.187-.023-2.164-.777-2.527-1.922-.047-.144-.098-.289-.148-.437M6.75 5.793H3.031c-.59 0-.754.172-.754.773v5.172c0 .64.16.805.782.805h12.855c.649 0 .809-.156.809-.805V6.594c0-.64-.157-.801-.785-.801H6.75Zm0 0"/>
    <path d="M4.555 6.918h1.039v4.484H3.406V6.918h1.149Zm0 0"/>
  </g>
</svg>