<svg xmlns="http://www.w3.org/2000/svg" width="20" height="px" viewBox="0 0 20 18">
  <path d="M.055 12.43c0-2.157 0-4.313.02-6.508.378-1.582 1.374-2.379 2.952-2.379h8.578c1.536 0 3.07-.008 4.606.004 1.289.012 2.34.855 2.629 2.117.094.406.098.828.144 1.25.563.035.907.363 1.07.906 0 .899 0 1.801-.015 2.739-.176.574-.543.84-1.094.875 0 .12-.004.222 0 .324.047 1.832-1.203 3.062-3.008 3.047-3.624-.035-7.25-.012-10.874-.012-.778 0-1.555.012-2.333-.004-1.187-.023-2.164-.777-2.527-1.922-.047-.144-.098-.289-.148-.437m5.363-6.637h-2.36c-.617 0-.78.164-.78.777v5.2c0 .597.171.773.757.773h12.906c.61 0 .782-.168.782-.777V6.594c0-.64-.157-.801-.785-.801H5.418Zm0 0"/>
  <path d="M4.668 6.918c.676 0 1.32 0 1.969.004.015 0 .035.008.07.016v4.464h-3.3V6.918h1.261Zm0 0" fill="#ff5a5a"/>
</svg>