<svg xmlns="http://www.w3.org/2000/svg" width="20" height="px" viewBox="0 0 20 20">
  <path d="M20.063 2.598c-.258.605-.731.722-1.317.722-5.848-.011-11.695-.007-17.539-.007-.512 0-.922-.145-1.125-.68a2.038 2.038 0 0 1 0-.488c.211-.555.613-.711 1.129-.711 5.871.004 11.746.007 17.617-.004.594 0 1.024.175 1.235.758v.41ZM.063 17.777c.257-.578.707-.722 1.292-.722 5.86.011 11.723.008 17.586.008.614 0 .934.218 1.102.742.02.136.02.261 0 .425-.203.563-.613.707-1.125.707-5.844 0-11.691-.003-17.54.008-.581 0-1.062-.113-1.315-.695v-.473Zm0 0"/>
  <path d="M20.063 2.16c-.211-.555-.641-.73-1.235-.73-5.871.011-11.746.008-17.617.004-.516 0-.918.156-1.129.683C.062 1.437.062.75.062.067h20V2.16ZM.063 18.277c.253.555.734.668 1.316.668 5.848-.011 11.695-.008 17.539-.008.512 0 .922-.144 1.125-.68.02.595.02 1.2.02 1.802h-20v-1.782Zm0 0" fill="#fff"/>
  <path d="M6.875 6.438h7.34c1.32 0 2.098.777 2.098 2.093v3.344c-.004 1.281-.782 2.063-2.063 2.063H5.879c-1.285 0-2.063-.782-2.066-2.063V8.473c.003-1.235.796-2.032 2.03-2.036h1.032Zm0 0"/>
</svg>