<svg xmlns="http://www.w3.org/2000/svg" width="20" height="px" viewBox="0 0 20 20">
  <path d="M1.777 20.063c-.351-.247-.468-.579-.468-.977.004-5.938.004-11.871.004-17.809 0-.832.64-1.3 1.335-.984.34.156.489.437.532.785.011.082.007.168.007.25v17.715c0 .387-.058.746-.43 1-.32.02-.636.02-.98.02ZM17.402 20.063c-.351-.247-.468-.579-.468-.977.003-5.938.003-11.871.003-17.809 0-.832.641-1.3 1.336-.984.34.156.489.437.532.785.011.082.008.168.008.25v17.715c0 .387-.06.746-.43 1-.32.02-.637.02-.98.02ZM6.594 4.855c.379-.632.949-.898 1.633-.91 1.218-.023 2.437-.02 3.656-.004 1.105.012 1.918.805 1.926 1.914.011 2.887.011 5.774 0 8.657-.004 1.117-.805 1.906-1.918 1.922a142.6 142.6 0 0 1-3.657 0c-1.113-.012-1.914-.801-1.918-1.918-.011-2.887-.011-5.774.008-8.657.004-.332.168-.656.27-1.004Zm0 0"/>
</svg>