<svg xmlns="http://www.w3.org/2000/svg" width="20" height="px" viewBox="0 0 20 20">
  <g fill="#fff">
    <path d="M9.785.23c-.34.094-.582.29-.73.583l-.09.183V3.75c0 3.074-.016 2.875.277 3.2.496.55 1.399.394 1.723-.298.062-.132.07-.316.082-1.699l.012-1.55 1.472 1.156c.809.636 1.496 1.175 1.524 1.199.035.035-.184.215-.973.785-1.047.762-1.18.887-1.285 1.207-.063.2-.031.55.07.75.094.188.356.43.54.508.167.07.605.07.777 0 .207-.09 3.37-2.403 3.48-2.547.273-.356.27-.89-.008-1.254-.125-.168-6.07-4.84-6.25-4.914-.176-.074-.472-.102-.62-.063ZM1.14 3.031a1.026 1.026 0 0 0-.57.914c0 .282.07.485.243.672.074.082 1.789 1.43 3.804 2.988 2.016 1.56 3.664 2.844 3.664 2.86-.004.012-1.066.848-2.367 1.86-1.3 1.007-2.418 1.886-2.48 1.948-.211.207-.29.399-.29.727 0 .332.079.516.301.738.285.29.766.38 1.125.215.098-.047 1.117-.812 2.266-1.71l2.09-1.626.02 3.192c.023 3.55.003 3.32.288 3.636.196.215.454.332.746.336.13 0 .297-.023.372-.054.074-.028 1.246-.766 2.597-1.637 1.356-.867 2.551-1.637 2.656-1.703l.196-.13 1.023.794c.563.433 1.098.82 1.192.86.347.14.824.05 1.097-.208a1.042 1.042 0 0 0 0-1.496c-.082-.078-1.554-1.23-3.273-2.559-1.719-1.328-4.047-3.125-5.176-4-1.129-.87-3.492-2.703-5.254-4.066C3.648 4.222 2.13 3.066 2.035 3.02c-.25-.13-.62-.125-.894.011ZM12.614 13.81c1.059.824 1.39 1.105 1.36 1.136-.028.028-.672.446-1.434.934-.762.488-1.41.906-1.434.926-.039.03-.05-.387-.05-2.078 0-2.106 0-2.118.078-2.067.043.031.707.547 1.48 1.149Zm0 0"/>
  </g>
</svg>