<svg xmlns="http://www.w3.org/2000/svg" width="20" height="px" viewBox="0 0 20 20">
  <path d="M9.277.047a.959.959 0 0 0-.425.293c-.227.27-.22.14-.22 3.95v3.5l-1.55-1.544c-1.008-1.004-1.61-1.57-1.707-1.613a1.089 1.089 0 0 0-.746-.004.913.913 0 0 0-.445 1.191c.058.133.554.653 2.078 2.176l2 2.004-2 2.004c-1.524 1.523-2.02 2.043-2.078 2.176a.898.898 0 0 0 .64 1.246c.219.043.496-.008.656-.117.07-.047.805-.766 1.637-1.594l1.516-1.508v3.5c0 3.813-.008 3.672.219 3.957.125.156.386.297.597.324.082.012.242-.008.36-.043.187-.054.523-.32 3.011-2.398 1.54-1.281 2.836-2.379 2.88-2.438a.895.895 0 0 0 .105-.957c-.09-.183-.282-.355-2.461-2.168-1.297-1.082-2.364-1.972-2.364-1.984 0-.012 1.067-.902 2.364-1.984 2.18-1.813 2.37-1.985 2.46-2.168a.92.92 0 0 0-.128-.993c-.14-.168-5.621-4.71-5.75-4.765-.18-.078-.504-.098-.649-.043Zm2.786 4.144c.82.684 1.492 1.258 1.488 1.27 0 .016-.696.601-1.543 1.309l-1.54 1.277V5.469c0-2.055.012-2.578.052-2.555l1.543 1.277ZM13.55 14.54c.004.024-2.922 2.477-3.031 2.547-.04.023-.051-.5-.051-2.555v-2.578l1.539 1.277c.847.707 1.543 1.293 1.543 1.31Zm0 0" fill="#fff"/>
</svg>