<svg width="884" height="1279" viewBox="0 0 884 1279" fill="none" xmlns="http://www.w3.org/2000/svg"><path d="M791.109 297.518 790.231 297.002 788.201 296.383C789.018 297.072 790.04 297.472 791.109 297.518v0z" fill="#0d0c22"/><path d="M803.896 388.891 802.916 389.166 803.896 388.891z" fill="#0d0c22"/><path d="M791.484 297.377C791.359 297.361 791.237 297.332 791.118 297.29 791.111 297.371 791.111 297.453 791.118 297.534 791.252 297.516 791.379 297.462 791.484 297.377v0z" fill="#0d0c22"/><path d="M791.113 297.529H791.244V297.447L791.113 297.529z" fill="#0d0c22"/><path d="M803.111 388.726 804.591 387.883 805.142 387.573 805.641 387.04C804.702 387.444 803.846 388.016 803.111 388.726v0z" fill="#0d0c22"/><path d="M793.669 299.515 792.223 298.138 791.243 297.605C791.77 298.535 792.641 299.221 793.669 299.515v0z" fill="#0d0c22"/><path d="M430.019 1186.18C428.864 1186.68 427.852 1187.46 427.076 1188.45L427.988 1187.87C428.608 1187.3 429.485 1186.63 430.019 1186.18z" fill="#0d0c22"/><path d="M641.187 1144.63C641.187 1143.33 640.551 1143.57 640.705 1148.21 640.705 1147.84 640.86 1147.46 640.929 1147.1 641.015 1146.27 641.084 1145.46 641.187 1144.63z" fill="#0d0c22"/><path d="M619.284 1186.18C618.129 1186.68 617.118 1187.46 616.342 1188.45L617.254 1187.87C617.873 1187.3 618.751 1186.63 619.284 1186.18z" fill="#0d0c22"/><path d="M281.304 1196.06C280.427 1195.3 279.354 1194.8 278.207 1194.61 279.136 1195.06 280.065 1195.51 280.684 1195.85L281.304 1196.06z" fill="#0d0c22"/><path d="M247.841 1164.01C247.704 1162.66 247.288 1161.35 246.619 1160.16 247.093 1161.39 247.489 1162.66 247.806 1163.94L247.841 1164.01z" fill="#0d0c22"/><path d="M472.623 590.836c-45.941 19.667-98.077 41.966-165.647 41.966C278.71 632.746 250.58 628.868 223.353 621.274l46.733 479.806C271.74 1121.13 280.876 1139.83 295.679 1153.46 310.482 1167.09 329.87 1174.65 349.992 1174.65 349.992 1174.65 416.254 1178.09 438.365 1178.09 462.161 1178.09 533.516 1174.65 533.516 1174.65c20.12.0 39.503-7.57000000000016 54.303-21.2C602.619 1139.82 611.752 1121.13 613.406 1101.08l50.053-530.204C641.091 563.237 618.516 558.161 593.068 558.161 549.054 558.144 513.591 573.303 472.623 590.836z" fill="#fd0"/><path d="M78.6885 386.132 79.4799 386.872 79.9962 387.182C79.5987 386.787 79.1603 386.435 78.6885 386.132v0z" fill="#0d0c22"/><path d="M879.567 341.849 872.53 306.352C866.215 274.503 851.882 244.409 819.19 232.898 808.711 229.215 796.821 227.633 788.786 220.01 780.751 212.388 778.376 200.55 776.518 189.572 773.076 169.423 769.842 149.257 766.314 129.143 763.269 111.85 760.86 92.4243 752.928 76.56c-10.324-21.3016-31.746-33.7591-53.048-42.001C688.965 30.4844 677.826 27.0375 666.517 24.2352 613.297 10.1947 557.342 5.03277 502.591 2.09047 436.875-1.53577 370.983-.443234 305.422 5.35968 256.625 9.79894 205.229 15.1674 158.858 32.0469c-16.948 6.1771-34.413 13.593-47.3 26.6872C95.7448 74.8221 90.5829 99.7026 102.128 119.765c8.208 14.247 22.111 24.313 36.857 30.972C158.192 159.317 178.251 165.846 198.829 170.215c57.297 12.664 116.642 17.636 175.178 19.753C438.887 192.586 503.87 190.464 568.44 183.618 584.408 181.863 600.347 179.758 616.257 177.304 634.995 174.43 647.022 149.928 641.499 132.859 634.891 112.453 617.134 104.538 597.055 107.618 594.095 108.082 591.153 108.512 588.193 108.942L586.06 109.252C579.257 110.113 572.455 110.915 565.653 111.661c-14.052 1.514-28.138 2.753-42.259 3.717C491.768 117.58 460.057 118.595 428.363 118.647c-31.144.0-62.305-.878-93.38-2.92500000000001C320.805 114.793 306.661 113.611 292.552 112.177 286.134 111.506 279.733 110.801 273.333 110.009L267.241 109.235 265.917 109.046 259.602 108.134C246.697 106.189 233.792 103.953 221.025 101.251 219.737 100.965 218.584 100.249 217.758 99.2193 216.932 98.1901 216.482 96.9099 216.482 95.5903 216.482 94.2706 216.932 92.9904 217.758 91.9612 218.584 90.9319 219.737 90.2152 221.025 89.9293H221.266C232.33 87.5721 243.479 85.5589 254.663 83.8038 258.392 83.2188 262.131 82.6453 265.882 82.0832H265.985C272.988 81.6186 280.026 80.3625 286.994 79.5366 347.624 73.2302 408.614 71.0801 469.538 73.1014 499.115 73.9618 528.676 75.6996 558.116 78.6935 564.448 79.3474 570.746 80.0357 577.043 80.8099 579.452 81.1025 581.878 81.4465 584.305 81.7391L589.191 82.4445C603.438 84.5667 617.61 87.1419 631.708 90.1703 652.597 94.7128 679.422 96.1925 688.713 119.077 691.673 126.338 693.015 134.408 694.649 142.03L696.731 151.752C696.786 151.926 696.826 152.105 696.852 152.285 701.773 175.227 706.7 198.169 711.632 221.111 711.994 222.806 712.002 224.557 711.657 226.255 711.312 227.954 710.621 229.562 709.626 230.982 708.632 232.401 707.355 233.6 705.877 234.504 704.398 235.408 702.75 235.997 701.033 236.236H700.895L697.884 236.649 694.908 237.044C685.478 238.272 676.038 239.419 666.586 240.486 647.968 242.608 629.322 244.443 610.648 245.992 573.539 249.077 536.356 251.102 499.098 252.066 480.114 252.57 461.135 252.806 442.162 252.771 366.643 252.712 291.189 248.322 216.173 239.625 208.051 238.662 199.93 237.629 191.808 236.58 198.106 237.389 187.231 235.96 185.029 235.651 179.867 234.928 174.705 234.177 169.543 233.397 152.216 230.798 134.993 227.598 117.7 224.793 96.7944 221.352 76.8005 223.073 57.8906 233.397c-15.5221 8.494-28.0851 21.519-36.013 37.338-8.1559 16.862-10.582 35.221-14.22974 53.34-3.64777 18.118-9.32591 37.613-7.175109 56.213C5.10128 420.431 33.165 453.054 73.5313 460.35 111.506 467.232 149.687 472.807 187.971 477.556 338.361 495.975 490.294 498.178 641.155 484.129 653.44 482.982 665.708 481.732 677.959 480.378 681.786 479.958 685.658 480.398 689.292 481.668S696.23 485.005 698.962 487.717 703.784 493.718 705.08 497.342C706.377 500.967 706.846 504.836 706.453 508.665L702.633 545.797c-7.697 75.031-15.394 150.057-23.091 225.077-8.029 78.783-16.111 157.56-24.244 236.326C653.004 1029.39 650.71 1051.57 648.416 1073.74 646.213 1095.58 645.904 1118.1 641.757 1139.68 635.218 1173.61 612.248 1194.45 578.73 1202.07 548.022 1209.06 516.652 1212.73 485.161 1213.01 450.249 1213.2 415.355 1211.65 380.443 1211.84 343.173 1212.05 297.525 1208.61 268.756 1180.87 243.479 1156.51 239.986 1118.36 236.545 1085.37 231.957 1041.7 227.409 998.039 222.9 954.381L197.607 711.615 181.244 554.538C180.968 551.94 180.693 549.376 180.435 546.76 178.473 528.023 165.207 509.681 144.301 510.627 126.407 511.418 106.069 526.629 108.168 546.76l12.13 116.454 25.087 240.89C152.532 972.528 159.661 1040.96 166.773 1109.41 168.15 1122.52 169.44 1135.67 170.885 1148.78 178.749 1220.43 233.465 1259.04 301.224 1269.91 340.799 1276.28 381.337 1277.59 421.497 1278.24 472.979 1279.07 524.977 1281.05 575.615 1271.72 650.653 1257.95 706.952 1207.85 714.987 1130.13 717.282 1107.69 719.576 1085.25 721.87 1062.8 729.498 988.559 737.115 914.313 744.72 840.061l24.881-242.61 11.408-111.188C781.577 480.749 783.905 475.565 787.649 471.478 791.392 467.391 796.352 464.617 801.794 463.567 823.25 459.386 843.761 452.245 859.023 435.916c24.295-25.998 29.13-59.895 20.544-94.067zM72.4301 365.835C72.757 365.68 72.1548 368.484 71.8967 369.792 71.8451 367.813 71.9483 366.058 72.4301 365.835zM74.5121 381.94C74.6842 381.819 75.2003 382.508 75.7337 383.334 74.925 382.576 74.4089 382.009 74.4949 381.94H74.5121zM76.5597 384.641C77.2996 385.897 77.6953 386.689 76.5597 384.641v0zM80.672 387.979H80.7752C80.7752 388.1 80.9645 388.22 81.0333 388.341 80.9192 388.208 80.7925 388.087 80.6548 387.979H80.672zM800.796 382.989C793.088 390.319 781.473 393.726 769.996 395.43c-128.704 19.099-259.283 28.769-389.399 24.502C287.476 416.749 195.336 406.407 103.144 393.382 94.1102 392.109 84.3197 390.457 78.1082 383.798c-11.7004-12.561-5.9534-37.854-2.9079-53.03C77.9878 316.865 83.3218 298.334 99.8572 296.355 125.667 293.327 155.64 304.218 181.175 308.09 211.917 312.781 242.774 316.538 273.745 319.36 405.925 331.405 540.325 329.529 671.92 311.91 695.905 308.686 719.805 304.941 743.619 300.674 764.835 296.871 788.356 289.731 801.175 311.703 809.967 326.673 811.137 346.701 809.778 363.615 809.359 370.984 806.139 377.915 800.779 382.989H800.796z" fill="#0d0c22"/></svg>