<svg xmlns="http://www.w3.org/2000/svg" width="20" height="21" viewBox="0 0 20 20">
  <path d="M6.691 15.523c0 .079-.093.141-.21.141-.133.012-.227-.05-.227-.14 0-.079.094-.141.21-.141.122-.012.227.05.227.14Zm-1.257-.175c-.028.078.054.168.175.191.106.04.227 0 .25-.078.024-.078-.054-.168-.175-.203-.102-.028-.22.012-.25.09Zm1.785-.067c-.117.028-.2.102-.188.192.012.078.117.129.239.101.117-.027.199-.101.187-.18-.012-.074-.121-.124-.238-.113ZM9.87.312C4.277.313 0 4.426 0 9.845c0 4.332 2.816 8.039 6.836 9.344.516.09.695-.22.695-.473 0-.242-.011-1.578-.011-2.399 0 0-2.82.586-3.415-1.164 0 0-.46-1.136-1.12-1.43 0 0-.926-.613.062-.6 0 0 1.004.077 1.558 1.007.883 1.508 2.364 1.074 2.938.816.094-.625.355-1.058.648-1.316-2.257-.242-4.53-.559-4.53-4.316 0-1.075.308-1.614.952-2.301-.105-.254-.449-1.301.106-2.653.84-.254 2.781 1.055 2.781 1.055a9.74 9.74 0 0 1 2.531-.332c.86 0 1.727.113 2.535.332 0 0 1.938-1.312 2.782-1.055.55 1.356.207 2.399.105 2.653.645.691 1.04 1.23 1.04 2.3 0 3.77-2.376 4.07-4.63 4.317.371.309.684.894.684 1.812 0 1.317-.012 2.946-.012 3.266 0 .254.188.563.7.473C17.264 17.883 20 14.176 20 9.844 20 4.426 15.465.313 9.871.313ZM3.918 13.786c-.05.04-.04.13.031.203.063.063.156.09.207.04.055-.04.043-.13-.027-.204-.063-.062-.156-.09-.211-.039Zm-.434-.316c-.027.05.012.113.094.152.063.04.145.027.172-.027.027-.051-.012-.114-.094-.153-.078-.023-.144-.011-.172.028Zm1.305 1.39c-.062.051-.039.168.055.243.09.09.207.101.261.039.051-.051.028-.168-.054-.243-.086-.09-.207-.101-.262-.039Zm-.457-.574c-.066.04-.066.14 0 .23.063.09.172.13.223.09.066-.05.066-.152 0-.242-.055-.09-.16-.129-.223-.078Zm0 0"/>
</svg>